<svg xmlns="http://www.w3.org/2000/svg" id="b3c6bed1-f1e0-4e30-9c11-ffc77896ad06" data-name="&#x421;&#x43B;&#x43E;&#x439; 1" viewBox="0 0 580.07 169.62"><defs><style>.ae27e2d8-cf16-41be-9e38-d27d48cdde8d{fill:#d01217;}.be66448e-8fe6-4e28-ba98-1cab53798cc0{fill:#7b868c;}</style></defs><title>sd-logo</title><rect class="ae27e2d8-cf16-41be-9e38-d27d48cdde8d" x="83.81" y="17.07" width="17.07" height="84.64"></rect><path class="ae27e2d8-cf16-41be-9e38-d27d48cdde8d" d="M295.52,86.05c-6.46,0-12.79-1.85-16.28-7.25-2.05-3.17-2.87-7.67-2.87-13.45V32.73h25.34l7-15.66H276.37V0H259.3V65.35c0,21.47,10.82,36.36,34.32,36.36H313l-7-15.66Z"></path><path class="ae27e2d8-cf16-41be-9e38-d27d48cdde8d" d="M222.89,17.76a42,42,0,0,0-14-2.5c-7.38.07-21.26,2.69-28.47,15.86C173.23,18,159.35,15.33,152,15.26a42,42,0,0,0-14,2.5c-12,4.44-23,15-23,34.09v49.86H132V55.08C132,42,137.2,31.18,152,31c14.77.2,19.94,11,19.94,24.1v46.63H189V55.08h0c0-13.06,5.18-23.9,19.94-24.1,14.77.2,19.94,11,19.94,24.1v46.63h17.08V51.85C245.94,32.74,234.86,22.2,222.89,17.76Z"></path><path class="ae27e2d8-cf16-41be-9e38-d27d48cdde8d" d="M557,17.76a42,42,0,0,0-14-2.5c-6.17.06-14.46,1.76-20.63,8.56V0H505.35V101.71h17.07V55.08c0-13.06,5.87-23.9,20.63-24.1,14.77.2,20,11,20,24.1v46.63h17.07V51.85C580.07,32.74,569,22.2,557,17.76Z"></path><path class="ae27e2d8-cf16-41be-9e38-d27d48cdde8d" d="M357.8,15.26c-26.19,0-45.06,18.56-45.06,44.13s18.87,44.13,45.06,44.13C374.45,103.52,389.22,96,397,84l-12.54-9.2a27.13,27.13,0,0,1-13.79,11,37.41,37.41,0,0,1-12.86,2.06c-13.77,0-25-9-27.73-22H402V59.39C402,33.82,384,15.26,357.8,15.26Zm0,15.74c13.34,0,23.15,7.87,26.37,19.63H330.68C334.24,38.87,344.89,31,357.8,31Z"></path><path class="ae27e2d8-cf16-41be-9e38-d27d48cdde8d" d="M482.08,75.42A29.71,29.71,0,0,1,457.8,87.78c-15.73,0-28.35-11.52-28.35-28.39S441.82,31,457.42,31c9.38,0,17,3.69,23.68,11.47l12.26-9.07a44.91,44.91,0,0,0-35.94-18.14c-24.82,0-45,19-45,44.13h0c0,25.11,20.38,44.13,45.41,44.13a45.46,45.46,0,0,0,36.82-18.9l.75-1.19-12.54-9.2Z"></path><path class="ae27e2d8-cf16-41be-9e38-d27d48cdde8d" d="M64.08,59.48a30.31,30.31,0,0,0-10.49-5.34,54.71,54.71,0,0,0-9-1.8c-.9-.11-.18,0-13.47-1.67-9.87-1.25-13.74-4.49-13.32-9.18.36-4,3.57-7,8.07-8.72A36.2,36.2,0,0,1,38.46,31c10.14.11,19.56,4.15,25.6,7.71l7.58-13.14c-9.82-5.66-21.7-9.67-32.58-10.24C17.55,14.2,1.69,24.62.5,40.68a21.49,21.49,0,0,0,8,18.18C12.63,62.3,19.3,65.12,27.9,66.2l13.48,1.71C51.25,69.17,55,72,54.68,77.11c-.24,4.16-3.74,7.62-8.92,9.3A36,36,0,0,1,34,87.76c-10.61-.11-20.44-4.57-26.43-8.26L0,92.63c10,6,22.22,10.21,33.41,10.8,21.5,1.15,37.37-9.34,38.55-25.5A21.87,21.87,0,0,0,64.08,59.48Z"></path><path class="be66448e-8fe6-4e28-ba98-1cab53798cc0" d="M.4,169.18V144.45H8.86c7.71,0,12.67,5.38,12.67,12.38s-5,12.35-12.67,12.35Zm18-12.35c0-5.34-3.37-9.64-9.49-9.64H3.48v19.24H8.86C14.86,166.43,18.35,162.13,18.35,156.83Z"></path><path class="be66448e-8fe6-4e28-ba98-1cab53798cc0" d="M32.28,169.18V144.45h16.2v2.74H35.36v8H48.22v2.74H35.36v8.53H48.48v2.75Z"></path><path class="be66448e-8fe6-4e28-ba98-1cab53798cc0" d="M66.71,169.18l-10-24.73h3.52L68.6,165.8l8.34-21.35h3.52l-9.93,24.73Z"></path><path class="be66448e-8fe6-4e28-ba98-1cab53798cc0" d="M89.61,169.18V144.45h16.2v2.74H92.69v8h12.86v2.74H92.69v8.53h13.12v2.75Z"></path><path class="be66448e-8fe6-4e28-ba98-1cab53798cc0" d="M116.22,169.18V144.45h3.08v22h11.49v2.75Z"></path><path class="be66448e-8fe6-4e28-ba98-1cab53798cc0" d="M138.57,156.83c0-7.3,5-12.79,12.27-12.79s12.31,5.49,12.31,12.79-5,12.79-12.31,12.79S138.57,164.13,138.57,156.83Zm21.39,0c0-5.78-3.59-10.05-9.12-10.05s-9.08,4.27-9.08,10.05,3.52,10,9.08,10S160,162.58,160,156.83Z"></path><path class="be66448e-8fe6-4e28-ba98-1cab53798cc0" d="M173.86,169.18V144.45h9.93c5,0,7.75,3.41,7.75,7.45s-2.82,7.45-7.75,7.45h-6.86v9.83Zm14.49-17.28a4.6,4.6,0,0,0-4.93-4.71h-6.49v9.42h6.49A4.6,4.6,0,0,0,188.35,151.9Z"></path><path class="be66448e-8fe6-4e28-ba98-1cab53798cc0" d="M222.67,169.18v-20.8l-8.38,20.8H213l-8.41-20.8v20.8h-3.08V144.45H206l7.71,19.05,7.68-19.05h4.41v24.73Z"></path><path class="be66448e-8fe6-4e28-ba98-1cab53798cc0" d="M237.45,169.18V144.45h16.2v2.74H240.53v8h12.86v2.74H240.53v8.53h13.12v2.75Z"></path><path class="be66448e-8fe6-4e28-ba98-1cab53798cc0" d="M282,169.18l-14.42-19.73v19.73h-3.08V144.45h3.15l14.24,19.31V144.45h3.07v24.73Z"></path><path class="be66448e-8fe6-4e28-ba98-1cab53798cc0" d="M302.76,169.18v-22h-7.82v-2.74h18.75v2.74h-7.86v22Z"></path></svg>